<svg xmlns="http://www.w3.org/2000/svg" viewBox="0 0 187.5 14.92"><defs><style>.cls-1{fill:#fff;}</style></defs><title>creative-brain</title><g id="Layer_2" data-name="Layer 2"><g id="レイヤー_1" data-name="レイヤー 1"><g id="_Group_" data-name="&lt;Group&gt;"><rect id="_Path_" data-name="&lt;Path&gt;" class="cls-1" x="77.24" y="0.07" width="1.3" height="14.74" rx="0.25" ry="0.25"/><g id="_Group_2" data-name="&lt;Group&gt;"><path id="_Path_2" data-name="&lt;Path&gt;" class="cls-1" d="M110.65,1V.36A.35.35,0,0,0,110.3,0h-8.7a.35.35,0,0,0-.35.35V14.57a.35.35,0,0,0,.35.35h8.7a.35.35,0,0,0,.35-.35V14a.35.35,0,0,0-.35-.35h-7.4a.35.35,0,0,1-.35-.35V1.66a.35.35,0,0,1,.35-.35h7.4A.35.35,0,0,0,110.65,1Z"/><rect id="_Path_3" data-name="&lt;Path&gt;" class="cls-1" x="104.5" y="6.81" width="5.82" height="1.3" rx="0.35" ry="0.35"/></g><path id="_Path_4" data-name="&lt;Path&gt;" class="cls-1" d="M96.24,0h-.88A.37.37,0,0,0,95,.25L90.59,13.41c0,.13-.12.13-.17,0L85.43.24A.39.39,0,0,0,85.1,0h-.9A.16.16,0,0,0,84,.24l5.47,14.44a.39.39,0,0,0,.34.23H91.2a.37.37,0,0,0,.33-.24L96.41.25A.17.17,0,0,0,96.24,0Z"/><path id="_Path_5" data-name="&lt;Path&gt;" class="cls-1" d="M13.34,11.2h-.78a.6.6,0,0,0-.48.2h0A6.12,6.12,0,1,1,7.42,1.31a6.08,6.08,0,0,1,4.63,2.13h0a.5.5,0,0,0,.38.17h.94c.32,0,.27-.19.23-.26a7.42,7.42,0,1,0,0,8.24C13.61,11.52,13.77,11.2,13.34,11.2Z"/><g id="_Group_3" data-name="&lt;Group&gt;"><path id="_Path_6" data-name="&lt;Path&gt;" class="cls-1" d="M43.82.9V.4c0-.31-.19-.37-.3-.38H34.79a.41.41,0,0,0-.37.46v14s0,.39.36.39h8.66c.31,0,.37-.2.37-.3V14a.37.37,0,0,0-.38-.39h-7.5c-.2,0-.22-.23-.22-.23V1.53a.2.2,0,0,1,.21-.21h7.46A.43.43,0,0,0,43.82.9Z"/><path id="_Path_7" data-name="&lt;Path&gt;" class="cls-1" d="M43.1,6.81H38a.36.36,0,0,0-.36.38v.59a.32.32,0,0,0,.36.32H43.1a.37.37,0,0,0,.39-.35V7.2a.35.35,0,0,0-.35-.38Z"/></g><path id="_Path_8" data-name="&lt;Path&gt;" class="cls-1" d="M71.9,0H62.23S62,0,62,.28V1a.31.31,0,0,0,.31.3h4a.22.22,0,0,1,.21.24v13a.27.27,0,0,0,.27.28h.81c.22,0,.22-.3.22-.3v-13A.22.22,0,0,1,68,1.31h3.88A.31.31,0,0,0,72.2,1V.32A.3.3,0,0,0,71.9,0Z"/><path id="_Path_9" data-name="&lt;Path&gt;" class="cls-1" d="M132.9,8.13a4.86,4.86,0,0,0-1.78-1.07L131,7c-.14-.05-.08-.12,0-.15l.17-.1a3.18,3.18,0,0,0,1.55-2.45,3.57,3.57,0,0,0-.9-3.06C130.36-.16,127.92,0,127.65,0h-4.23a.3.3,0,0,0-.29.34V14.58s0,.23.21.23h.87c.2,0,.22-.23.22-.23V1.32h3.3s2.06-.19,3.07.83a2.31,2.31,0,0,1,.53,2,2.1,2.1,0,0,1-1.5,1.76h0a.46.46,0,0,0-.3.43V7.62a.44.44,0,0,0,.31.41h0a4.48,4.48,0,0,1,2.14,1,2,2,0,0,1,.59,1.46c0,2.05-1.67,3-5.24,3h-1.1a.24.24,0,0,0-.24.25v.84a.22.22,0,0,0,.22.21h1.12a10.89,10.89,0,0,0,4-.62,3.77,3.77,0,0,0,2.53-3.69A3.24,3.24,0,0,0,132.9,8.13Z"/><path id="_Path_10" data-name="&lt;Path&gt;" class="cls-1" d="M60.27,14.62,54.83.25A.39.39,0,0,0,54.46,0H53.18a.38.38,0,0,0-.37.23h0L48,14.6h0s-.1.31.23.31H49a.41.41,0,0,0,.37-.29l.57-1.7.06-.18v0h0a.23.23,0,0,1,.23-.15h5.49c.37,0,.3-.32.3-.32l-.29-.76a.41.41,0,0,0-.37-.22H50.67c-.22,0-.15-.21-.15-.21l0-.14,3.06-9h0l0-.07c.06-.15.21-.44.4.07l4.85,12.8h0a.47.47,0,0,0,.36.24h.8C60.36,14.92,60.29,14.68,60.27,14.62Z"/><path id="_Path_11" data-name="&lt;Path&gt;" class="cls-1" d="M165.28,14.62,159.84.25a.39.39,0,0,0-.37-.23h-1.28a.38.38,0,0,0-.37.23h0L153,14.6h0s-.1.31.23.31H154a.41.41,0,0,0,.37-.29l.57-1.7.06-.18v0h0a.23.23,0,0,1,.23-.15h5.49c.37,0,.3-.32.3-.32l-.29-.76a.41.41,0,0,0-.37-.22h-4.64c-.22,0-.15-.21-.15-.21l0-.14,3.06-9h0l0-.07c.06-.15.21-.44.4.07l4.85,12.8h0a.47.47,0,0,0,.36.24h.8C165.37,14.92,165.31,14.68,165.28,14.62Z"/><rect id="_Path_12" data-name="&lt;Path&gt;" class="cls-1" x="170.09" y="0.07" width="1.3" height="14.74" rx="0.25" ry="0.25"/><path id="_Path_13" data-name="&lt;Path&gt;" class="cls-1" d="M186.89,14.52l.06.07c.15.17.55.54.55-.28V.32a.25.25,0,0,0-.25-.25h-.81a.25.25,0,0,0-.25.25V11.41c0,.14-.07.16-.16.06L177.73.3s-.54-.62-.54.22V14.67a.25.25,0,0,0,.25.25h.81a.25.25,0,0,0,.25-.25V3.49c0-.14.07-.16.16-.06l8.24,11.09h0Z"/><path id="_Path_14" data-name="&lt;Path&gt;" class="cls-1" d="M25.08,11h0c-.23-.2,0-.27,0-.28h0a7.37,7.37,0,0,0,1.41-.47,4.94,4.94,0,0,0,3-4.79,5,5,0,0,0-1.5-3.83A7.27,7.27,0,0,0,23.22,0H19.07a.35.35,0,0,0-.37.38V14.53a.38.38,0,0,0,.39.39h.59c.34,0,.33-.39.33-.39V1.59a.26.26,0,0,1,.26-.28h3a6.06,6.06,0,0,1,3.93,1.26,3.74,3.74,0,0,1,1.1,2.88A3.63,3.63,0,0,1,26.08,9a6.66,6.66,0,0,1-2.29.56h0a.47.47,0,0,0-.45.51v.71a1,1,0,0,0,.39.74l3.56,3.11h0l0,0a.93.93,0,0,0,.58.21h.9c.67,0,.22-.45.22-.45Z"/><path id="_Path_15" data-name="&lt;Path&gt;" class="cls-1" d="M144.53,11h0c-.23-.2,0-.27,0-.28h0a7.37,7.37,0,0,0,1.41-.47,4.94,4.94,0,0,0,3-4.79,5,5,0,0,0-1.5-3.83A7.27,7.27,0,0,0,142.67,0h-4.15a.35.35,0,0,0-.37.38V14.53a.38.38,0,0,0,.39.39h.59c.34,0,.33-.39.33-.39V1.59a.26.26,0,0,1,.26-.28h3a6.06,6.06,0,0,1,3.93,1.26,3.74,3.74,0,0,1,1.1,2.88A3.63,3.63,0,0,1,145.53,9a6.66,6.66,0,0,1-2.29.56h0a.47.47,0,0,0-.45.51v.71a1,1,0,0,0,.39.74l3.56,3.11h0l0,0a.93.93,0,0,0,.58.21h.9c.67,0,.22-.45.22-.45Z"/></g></g></g></svg>