<svg xmlns="http://www.w3.org/2000/svg" xmlns:xlink="http://www.w3.org/1999/xlink" viewBox="0 0 356.09 126.75"><defs><style>.cls-1{fill:url(#名称未設定グラデーション_9);}.cls-2{fill:url(#名称未設定グラデーション_9-2);}.cls-3{fill:url(#名称未設定グラデーション_9-4);}.cls-4{fill:url(#名称未設定グラデーション_9-5);}.cls-5{fill:url(#名称未設定グラデーション_9-7);}.cls-6{fill:url(#名称未設定グラデーション_9-8);}.cls-7{fill:url(#名称未設定グラデーション_9-9);}.cls-8{fill:url(#名称未設定グラデーション_9-10);}.cls-9{fill:url(#名称未設定グラデーション_9-11);}.cls-10{fill:url(#名称未設定グラデーション_9-12);}.cls-11{fill:url(#名称未設定グラデーション_9-13);}.cls-12{fill:url(#名称未設定グラデーション_9-14);}.cls-13{fill:url(#名称未設定グラデーション_14);}</style><linearGradient id="名称未設定グラデーション_9" x1="0.53" y1="111.85" x2="356.42" y2="111.85" gradientUnits="userSpaceOnUse"><stop offset="0"/><stop offset="0.69" stop-color="#00aeef"/><stop offset="1"/></linearGradient><linearGradient id="名称未設定グラデーション_9-2" x1="-0.44" y1="111.9" x2="355.44" y2="111.9" xlink:href="#名称未設定グラデーション_9"/><linearGradient id="名称未設定グラデーション_9-4" x1="1.02" y1="111.85" x2="356.9" y2="111.85" xlink:href="#名称未設定グラデーション_9"/><linearGradient id="名称未設定グラデーション_9-5" x1="1.02" y1="111.9" x2="356.9" y2="111.9" xlink:href="#名称未設定グラデーション_9"/><linearGradient id="名称未設定グラデーション_9-7" x1="1.5" y1="111.8" x2="357.39" y2="111.8" xlink:href="#名称未設定グラデーション_9"/><linearGradient id="名称未設定グラデーション_9-8" x1="1.5" y1="111.9" x2="357.39" y2="111.9" xlink:href="#名称未設定グラデーション_9"/><linearGradient id="名称未設定グラデーション_9-9" x1="-0.44" y1="111.9" x2="355.44" y2="111.9" xlink:href="#名称未設定グラデーション_9"/><linearGradient id="名称未設定グラデーション_9-10" x1="-0.44" y1="111.85" x2="355.44" y2="111.85" xlink:href="#名称未設定グラデーション_9"/><linearGradient id="名称未設定グラデーション_9-11" x1="-0.44" y1="111.9" x2="355.44" y2="111.9" xlink:href="#名称未設定グラデーション_9"/><linearGradient id="名称未設定グラデーション_9-12" x1="-0.44" y1="111.98" x2="355.44" y2="111.98" xlink:href="#名称未設定グラデーション_9"/><linearGradient id="名称未設定グラデーション_9-13" x1="-0.44" y1="111.81" x2="355.44" y2="111.81" xlink:href="#名称未設定グラデーション_9"/><linearGradient id="名称未設定グラデーション_9-14" x1="1.02" y1="111.9" x2="356.9" y2="111.9" xlink:href="#名称未設定グラデーション_9"/><linearGradient id="名称未設定グラデーション_14" x1="130.39" y1="37.9" x2="225.69" y2="37.9" gradientUnits="userSpaceOnUse"><stop offset="0"/><stop offset="0.1" stop-color="#002533"/><stop offset="0.31" stop-color="#006e97"/><stop offset="0.46" stop-color="#009cd6"/><stop offset="0.53" stop-color="#00aeef"/><stop offset="1"/></linearGradient></defs><title>Asset 1</title><g id="Layer_2" data-name="Layer 2"><g id="レイヤー_1" data-name="レイヤー 1"><g id="_Group_" data-name="&lt;Group&gt;"><g id="_Group_2" data-name="&lt;Group&gt;"><rect id="_Path_" data-name="&lt;Path&gt;" class="cls-1" x="149.55" y="97.21" width="2.59" height="29.28" rx="0.49" ry="0.49"/><path id="_Path_2" data-name="&lt;Path&gt;" class="cls-2" d="M211.27,99V97.79a.69.69,0,0,0-.69-.69H193.3a.69.69,0,0,0-.69.69V126a.69.69,0,0,0,.69.69h17.29a.69.69,0,0,0,.69-.69v-1.21a.69.69,0,0,0-.69-.69h-14.7a.69.69,0,0,1-.69-.69V100.38a.69.69,0,0,1,.69-.69h14.7A.69.69,0,0,0,211.27,99Z"/><rect id="_Path_3" data-name="&lt;Path&gt;" class="cls-2" x="199.06" y="110.61" width="11.56" height="2.59" rx="0.69" ry="0.69"/><path id="_Path_4" data-name="&lt;Path&gt;" class="cls-3" d="M26.51,119.33H25a1.19,1.19,0,0,0-.95.4h0A12.17,12.17,0,1,1,24,103.92h0a1,1,0,0,0,.76.34h1.87c.64,0,.53-.38.47-.52A14.75,14.75,0,1,0,27,120.1C27,120,27.35,119.33,26.51,119.33Z"/><path id="_Path_5" data-name="&lt;Path&gt;" class="cls-4" d="M85.1,98.86v-1c0-.62-.38-.74-.6-.76H67.16a.82.82,0,0,0-.73.92v27.91s0,.78.71.78H84.35c.62,0,.73-.4.74-.59V124.9a.73.73,0,0,0-.76-.78H69.45c-.4,0-.43-.45-.43-.45V100.11a.39.39,0,0,1,.41-.42H84.25A.86.86,0,0,0,85.1,98.86Z"/><path id="_Path_6" data-name="&lt;Path&gt;" class="cls-4" d="M83.67,110.61H73.59a.72.72,0,0,0-.71.76v1.18a.63.63,0,0,0,.71.64H83.67a.73.73,0,0,0,.77-.69v-1.13a.69.69,0,0,0-.69-.76Z"/><path id="_Path_7" data-name="&lt;Path&gt;" class="cls-5" d="M140.88,97.1h-19.2s-.56,0-.56.54V99.1a.62.62,0,0,0,.61.59h7.85a.43.43,0,0,1,.42.47v25.78a.53.53,0,0,0,.54.55h1.61c.45,0,.44-.59.44-.59V100.13a.44.44,0,0,1,.5-.44h7.71a.61.61,0,0,0,.67-.59V97.7A.6.6,0,0,0,140.88,97.1Z"/><path id="_Path_8" data-name="&lt;Path&gt;" class="cls-6" d="M117.78,126.12,107,97.57a.77.77,0,0,0-.74-.46h-2.54a.76.76,0,0,0-.73.46h0l-9.65,28.52h0s-.19.62.45.62h1.53a.8.8,0,0,0,.73-.58l1.14-3.38.12-.35v0h0a.46.46,0,0,1,.46-.3h10.9c.74,0,.59-.64.59-.64l-.57-1.52a.81.81,0,0,0-.74-.43H98.71c-.43,0-.29-.42-.29-.42l.09-.27,6.08-18h0l0-.14c.11-.29.41-.87.79.14l9.63,25.43h0a.93.93,0,0,0,.71.47h1.6C118,126.71,117.83,126.25,117.78,126.12Z"/><path id="_Path_9" data-name="&lt;Path&gt;" class="cls-7" d="M312.93,126.12,302.12,97.57a.77.77,0,0,0-.74-.46h-2.54a.76.76,0,0,0-.73.46h0l-9.65,28.52h0s-.19.62.45.62h1.53a.8.8,0,0,0,.73-.58l1.14-3.38.12-.35v0h0a.46.46,0,0,1,.46-.3h10.9c.74,0,.59-.64.59-.64l-.57-1.52a.81.81,0,0,0-.74-.43h-9.22c-.43,0-.29-.42-.29-.42l.09-.27,6.08-18h0l0-.14c.11-.29.41-.87.79.14l9.63,25.43h0a.93.93,0,0,0,.71.47h1.6C313.1,126.71,313,126.25,312.93,126.12Z"/><rect id="_Path_10" data-name="&lt;Path&gt;" class="cls-8" x="322.48" y="97.21" width="2.59" height="29.28" rx="0.49" ry="0.49"/><path id="_Path_11" data-name="&lt;Path&gt;" class="cls-9" d="M273.16,119h0c-.45-.4,0-.53.07-.56l.1,0a14.65,14.65,0,0,0,2.8-.93,9.82,9.82,0,0,0,6-9.52,10,10,0,0,0-3-7.61c-3.56-3.36-9.08-3.23-9.7-3.21h-8.25a.7.7,0,0,0-.73.75v28.08a.75.75,0,0,0,.77.78h1.17c.67,0,.65-.78.65-.78V100.24a.51.51,0,0,1,.51-.55h6s4.93-.22,7.81,2.5a7.43,7.43,0,0,1,2.18,5.73,7.2,7.2,0,0,1-4.43,7.13,13.23,13.23,0,0,1-4.55,1.12h0a.94.94,0,0,0-.89,1v1.41a2.06,2.06,0,0,0,.78,1.47l7.07,6.18h0l.08.07a1.85,1.85,0,0,0,1.15.41h1.78c1.33,0,.44-.9.44-.9Z"/><path id="_Path_12" data-name="&lt;Path&gt;" class="cls-10" d="M355.59,97.25H354a.49.49,0,0,0-.49.49v22c0,.27-.14.32-.32.11L345.85,110l-9.12-12.48a.68.68,0,0,0-.75-.22c-.34.11-.36.52-.37.63v28.34a.49.49,0,0,0,.49.49h1.6a.49.49,0,0,0,.49-.49v-22c0-.27.14-.32.32-.11l7.33,10.09L355,126.48a.68.68,0,0,0,.75.22c.34-.11.36-.52.37-.63V97.74A.49.49,0,0,0,355.59,97.25Z"/><path id="_Path_13" data-name="&lt;Path&gt;" class="cls-11" d="M251,113.22a9.66,9.66,0,0,0-3.54-2.13l-.1,0h0c-.57-.22,0-.54,0-.54l.08,0a6.32,6.32,0,0,0,3.07-4.87,7.19,7.19,0,0,0-1.79-6.07c-2.32-2.42-6.77-2.42-7.3-2.42H232.2a.59.59,0,0,0-.57.67V126s0,.46.41.46h1.73c.4,0,.44-.46.44-.46V99.69h7.39s3.53,0,5.27,1.66a4.5,4.5,0,0,1,1.06,4,4.17,4.17,0,0,1-3,3.5h0a.91.91,0,0,0-.59.85v2.54a.87.87,0,0,0,.62.82h0a8.89,8.89,0,0,1,4.25,2,3.88,3.88,0,0,1,1.17,2.89c0,4.08-3.31,6-10.41,6h-2.18a.47.47,0,0,0-.47.49v1.67a.44.44,0,0,0,.43.42H240a21.63,21.63,0,0,0,8-1.23,7.5,7.5,0,0,0,5-7.33A6.43,6.43,0,0,0,251,113.22Z"/><path id="_Path_14" data-name="&lt;Path&gt;" class="cls-12" d="M48.36,119h0c-.45-.4,0-.53.07-.56l.1,0a14.65,14.65,0,0,0,2.8-.93,9.82,9.82,0,0,0,6-9.52,10,10,0,0,0-3-7.61c-3.56-3.36-9.08-3.23-9.7-3.21H36.42a.7.7,0,0,0-.73.75v28.08a.75.75,0,0,0,.77.78h1.17c.67,0,.65-.78.65-.78V100.24a.51.51,0,0,1,.51-.55h6s4.93-.22,7.81,2.5a7.43,7.43,0,0,1,2.18,5.73A7.2,7.2,0,0,1,50.34,115a13.23,13.23,0,0,1-4.55,1.12h0a.94.94,0,0,0-.89,1v1.41a2.06,2.06,0,0,0,.78,1.47l7.07,6.18h0l.08.07a1.85,1.85,0,0,0,1.15.41h1.78c1.33,0,.44-.9.44-.9Z"/><path id="_Path_15" data-name="&lt;Path&gt;" class="cls-7" d="M184.72,97.1h-1.6a.74.74,0,0,0-.65.47l-8.62,25.49c-.36,1.07-.75.13-.79,0l-9.66-25.51a.77.77,0,0,0-.67-.46h-1.61c-.68,0-.42.64-.42.64h0l10.8,28.51a.77.77,0,0,0,.67.46h2.69a.74.74,0,0,0,.65-.47l9.65-28.54C185.2,97.57,185.31,97.1,184.72,97.1Z"/></g><path id="_Compound_Path_" data-name="&lt;Compound Path&gt;" class="cls-13" d="M224.45,19.88,203,1.21A5.69,5.69,0,0,0,199.5,0L181.42.92c-1.09.06-2,.08-2.06.06s-.08,0-.08,0-.89.09-2,.15L153,2.36a10.07,10.07,0,0,0-5.11,1.46L132,15.23a4.23,4.23,0,0,0-1.57,3.14l.29,14.18a5.13,5.13,0,0,0,1.54,3.29L142.72,45a10.48,10.48,0,0,0,3.41,1.84l30.74,8.57.68.2a7,7,0,0,1,2.64,1.73l.58.58,17.53,17.44a1.06,1.06,0,0,0,1.93-.51l3-10.85a5.13,5.13,0,0,1,2.14-3.07l14.93-10.7a5.36,5.36,0,0,0,1.9-3.12l3.48-23.93A4.07,4.07,0,0,0,224.45,19.88ZM174.4,4.08h.07c.31,0,1.51,0,1.83.6.39.77-.36,1.59-.36,1.59h0L160.11,23a3.59,3.59,0,0,1-3,1.06c-1.32-.24-1.85-2.44-1.85-2.44L152.59,8.5a3.74,3.74,0,0,1,.22-2.42,2.92,2.92,0,0,1,2.17-1h.24l19.17-1ZM137.9,18.37h0l-.29-.13a2.2,2.2,0,0,1-1.29-1.64,2,2,0,0,1,.81-1.63l9.53-6.81a2.66,2.66,0,0,1,2.13-.53,2,2,0,0,1,1.06,1.45l2.42,11.71c.11.51.38,2.09-.57,2.71a3.24,3.24,0,0,1-2.63,0Zm-4.44,12.88-.08-4.1h0v-.25c0-.34.06-.91.42-1,.53-.14.92.74.92.74h0l4.66,9.9h0l0,.07c.11.24.48,1.1.13,1.3s-.8-.12-1-.28l-.1-.09h0l-3.43-3A5.14,5.14,0,0,1,133.46,31.25Zm11.8,9.19c-1.09-.11-1.65-1.46-1.76-1.69l0,0h0l-7.26-15.44h0s-.5-1.17,0-1.74,1.63-.07,1.63-.07l12.37,5.71a4.08,4.08,0,0,1,2.1,2.46,4.94,4.94,0,0,1-.88,3.73l-4.13,5.8S146.47,40.56,145.26,40.44Zm25,10.2-19.75-5.51c-3-.84-1.92-2.82-1.58-3.32l5.39-7.57a2.82,2.82,0,0,1,1.93-1.09,4,4,0,0,1,2.88,1.48l12.81,14h0l.06.06C172.38,49.12,174.76,51.9,170.24,50.64Zm8.91-3.42c-.13,4.94-3.48,1.33-3.5,1.32L160.8,32.33a4.47,4.47,0,0,1-1.31-3,4.4,4.4,0,0,1,1.07-2.68L177,9.19c.18-.19.93-.89,1.59-.55a1.44,1.44,0,0,1,.64,1.24ZM186.09,4c.16-.42.72-.52,1-.55h.16L198,2.89a2.38,2.38,0,0,1,2.51,1.81L202,10.16h0l.13.47a1.41,1.41,0,0,1-.35,1.61c-.75.5-2-.16-2-.16L186.56,4.89C186.42,4.81,185.9,4.48,186.09,4Zm-4,5.65h0a3.21,3.21,0,0,1,.86-2.34c.91-.68,2.32.07,2.32.07L199,14.82h0l.2.11c.41.24,1.32.86,1.34,1.68,0,1.23-1.37,2.06-1.37,2.06L187.2,26h0c-.35.22-2.4,1.28-3.94.41-1.06-.6-1.22-2.34-1.24-3Zm1.06,40.76c-1-.5-1.15-2.16-1.16-2.82l0-10.49h0s0,0,0-.08V36.9c0-.58.11-2.35,1.09-2.9,1.25-.68,3.2.25,3.2.25l12.67,7h0l.16.09A2,2,0,0,1,200.19,43a1.92,1.92,0,0,1-1.1,1.73l-.14.06h0l-12,5.33S184.55,51.1,183.12,50.4Zm17.42,12.77-1.73,6.29a1.06,1.06,0,0,1-1.93.51L187,60.12s-1.12-1.12-.69-1.73,1.24-.35,1.64-.26l11.21,2.67A1.91,1.91,0,0,1,200.53,63.17Zm2.25-13.3-1.15,5.4a3.61,3.61,0,0,1-1.24,2,4.48,4.48,0,0,1-2.77.24l-9.24-2.2c-3.88-1.05-.45-2.65-.14-2.79h0l11.81-5.22h0s1.41-.61,2.21.22A2.43,2.43,0,0,1,202.78,49.87Zm.27-10.74a3.51,3.51,0,0,1-2.66-.26l-10.9-6h0l-.29-.16a2.92,2.92,0,0,1-1.49-2.21A3.06,3.06,0,0,1,189.28,28l10.88-6.64h0l.11-.07c.38-.22,1.68-.92,2.6-.44s1,2.08,1,2.55l.19,13.33A2.45,2.45,0,0,1,203.05,39.13ZM204.4,6.65c.35-.15.75.15.87.25l11.68,10.16s.66.61.42,1-.85.15-.85.15l-6.78-1.81a7.45,7.45,0,0,1-3-1.57,6.07,6.07,0,0,1-1.27-2.34l0-.07h0l-1.31-4.75S204,6.84,204.4,6.65Zm3.54,19.18L215.86,43c.46,1,0,1.58-1.09,1.31l-4.56-1.18a5.35,5.35,0,0,1-2.47-1.42,4.62,4.62,0,0,1-.79-2.64l-.19-12.9c0-.2,0-.91.4-1S207.93,25.83,207.93,25.83Zm8.33,23.81-.16.11h0L207,56.28h0l0,0c-.16.11-1.21.82-1.93.36a1.51,1.51,0,0,1-.53-1.55l1.54-7.21a2.92,2.92,0,0,1,1.27-1.79,3.53,3.53,0,0,1,2.61-.17l5.88,1.52h0a1.4,1.4,0,0,1,1,.86A1.37,1.37,0,0,1,216.27,49.64Zm6.34-24.9L220.1,42c0,.24-.18.78-.63.86s-.92-.69-.92-.69l-9.28-20.06a2.34,2.34,0,0,1,0-2.08c.38-.63,1.26-.5,1.64-.41l.17,0h0L221,22.26A2.29,2.29,0,0,1,222.6,24.74Z"/></g></g></g></svg>